<svg width="28" height="28" fill="none"
  xmlns="http://www.w3.org/2000/svg">
  <path d="m14.5 0 3.8 2.2v3l-3.8 2.1V0Z" fill="#FF1E6E"/>
  <path d="m14.5 27.6 3.8-2.2v-3l-3.8-2.1v7.3ZM10.8 0l3.7 2.2v5.1l-3.7-2.1V0Z" fill="#6E072C"/>
  <path d="m10.8 27.6 3.7-2.2v-5.1l-3.7 2.1v5.2Z" fill="#FF1E6E"/>
  <path d="m7 7.3 3.8 2.2v4.3L7 11.6V7.3ZM18.3 13.8 22 16v4.3L18.3 18v-4.3Z" fill="#6E072C"/>
  <path d="m14.5 7.3-3.7 2.2v4.3l3.7-2.2V7.3ZM18.3 13.8 14.5 16v4.3l3.8-2.2v-4.3Z" fill="#FF1E6E"/>
  <path d="m10.8 5.2 3.7 2.1-3.7 2.2L7 7.3l3.8-2.1Z" fill="#A81348"/>
  <path d="M18.3 5.2 22 7.3l-3.8 2.2-3.8-2.2 3.8-2.1ZM10.8 18.1l3.7 2.2-3.7 2.1L7 20.3l3.8-2.2ZM18.3 18.1l3.8 2.2-3.8 2.1-3.8-2.1 3.8-2.2ZM14.5 11.6l3.8 2.2-3.8 2.2-3.7-2.2 3.7-2.2Z" fill="#A81348"/>
</svg>